<?xml version="1.0" encoding="utf-8"?>
<!-- Generator: Adobe Illustrator 22.1.0, SVG Export Plug-In . SVG Version: 6.00 Build 0)  -->
<svg version="1.1" id="Layer_1" xmlns="http://www.w3.org/2000/svg" xmlns:xlink="http://www.w3.org/1999/xlink" x="0px" y="0px"
	 viewBox="0 0 512 512" style="enable-background:new 0 0 512 512;" xml:space="preserve">
<style type="text/css">
	.st0{fill:url(#SVGID_1_);}
</style>
<g>
	<g>
		<linearGradient id="SVGID_1_" gradientUnits="userSpaceOnUse" x1="195.6687" y1="497.9757" x2="316.3314" y2="14.0242">
			<stop  offset="0" style="stop-color:#A439FF"/>
			<stop  offset="1" style="stop-color:#9794FF"/>
		</linearGradient>
		<path class="st0" d="M479,223H289V33c0-18.2-14.8-33-33-33s-33,14.8-33,33v190H33c-18.2,0-33,14.8-33,33c0,18.2,14.8,33,33,33h190
			v190c0,18.2,14.8,33,33,33s33-14.8,33-33V289h190c18.2,0,33-14.8,33-33C512,237.8,497.2,223,479,223z"/>
	</g>
</g>
</svg>
