<?xml version="1.0" encoding="utf-8"?>
<!-- Generator: Adobe Illustrator 22.1.0, SVG Export Plug-In . SVG Version: 6.00 Build 0)  -->
<svg version="1.1" id="Calque_1" xmlns="http://www.w3.org/2000/svg" xmlns:xlink="http://www.w3.org/1999/xlink" x="0px" y="0px"
	 viewBox="0 0 512 512" style="enable-background:new 0 0 512 512;" xml:space="preserve">
<style type="text/css">
	.st0{fill:url(#SVGID_1_);}
	.st1{fill:url(#SVGID_2_);}
</style>
<linearGradient id="SVGID_1_" gradientUnits="userSpaceOnUse" x1="193.2757" y1="507.5735" x2="318.7244" y2="4.4265">
	<stop  offset="0" style="stop-color:#A439FF"/>
	<stop  offset="1" style="stop-color:#9794FF"/>
</linearGradient>
<path class="st0" d="M212.8,512c-8.1,0-14.7-6.6-14.7-14.7v-38.2c-15.6-4.4-30.7-10.7-44.8-18.6l-27,27c-2.8,2.8-6.5,4.3-10.4,4.3
	s-7.6-1.5-10.4-4.3l-61-61c-2.8-2.8-4.3-6.5-4.3-10.4c0-3.9,1.5-7.6,4.3-10.4l27-27c-7.9-14.2-14.1-29.2-18.6-44.8H14.7
	c-8.1,0-14.7-6.6-14.7-14.7v-86.3c0-8.1,6.6-14.7,14.7-14.7H53c4.4-15.6,10.7-30.6,18.6-44.7l-27.1-27.1c-2.8-2.8-4.3-6.5-4.3-10.4
	s1.5-7.6,4.3-10.4l61-61c2.8-2.8,6.5-4.3,10.4-4.3s7.6,1.5,10.4,4.3l27.2,27.2c14.1-7.9,29.1-14.1,44.7-18.5V14.7
	c0-8.1,6.6-14.7,14.7-14.7h86.3c8.1,0,14.7,6.6,14.7,14.7v38.5c15.5,4.4,30.5,10.6,44.6,18.5l27.2-27.2c2.7-2.7,6.5-4.3,10.4-4.3
	c3.9,0,7.7,1.6,10.4,4.3l61,61c2.8,2.8,4.3,6.5,4.3,10.4s-1.5,7.6-4.3,10.4l-27.2,27.2c7.9,14.1,14.1,29.1,18.5,44.6h38.5
	c8.1,0,14.7,6.6,14.7,14.7v86.3c0,8.1-6.6,14.7-14.7,14.7h-38.4c-4.4,15.5-10.6,30.5-18.5,44.7l27.2,27.2c2.8,2.8,4.3,6.5,4.3,10.4
	c0,3.9-1.5,7.6-4.3,10.4l-61,61c-2.8,2.8-6.5,4.3-10.4,4.3c-3.9,0-7.6-1.5-10.4-4.3l-27.1-27.1c-14.2,7.9-29.2,14.1-44.8,18.6v38.2
	c0,8.1-6.6,14.7-14.7,14.7H212.8z M285,487v-35.6c0-7.1,4.8-13.1,11.7-14.6c20.7-4.7,40.3-12.8,58.2-24.2c2.4-1.5,5.2-2.3,8-2.3
	c4,0,7.8,1.6,10.6,4.4l25.3,25.2l41-41l-25.3-25.3c-5-5-5.9-12.6-2.1-18.6c11.3-17.9,19.4-37.5,24.1-58.2
	c1.5-6.9,7.6-11.7,14.6-11.7H487v-58h-35.9c-7.1,0-13.1-4.8-14.6-11.7c-4.6-20.6-12.8-40.2-24.1-58.1c-3.8-6-2.9-13.6,2.1-18.6
	l25.4-25.4l-41-41l-25.4,25.4c-2.8,2.8-6.6,4.4-10.6,4.4c-2.8,0-5.6-0.8-8-2.3c-17.9-11.3-37.5-19.5-58.1-24.1
	C289.8,74,285,68,285,60.9V25h-58v35.8c0,7.1-4.8,13.1-11.7,14.6c-20.7,4.6-40.2,12.7-58.2,24.1c-2.4,1.5-5.2,2.3-8,2.3
	c-4,0-7.8-1.6-10.6-4.4l-25.3-25.3l-41,41l25.3,25.3c5,5,5.8,12.7,2.1,18.6c-11.4,17.9-19.5,37.5-24.2,58.2
	c-1.6,6.9-7.6,11.7-14.6,11.7H25v58h35.6c7.1,0,13.1,4.8,14.6,11.7c4.6,20.7,12.8,40.3,24.1,58.3c3.8,6,2.9,13.6-2.1,18.6
	l-25.2,25.2l41,41l25.2-25.2c2.8-2.8,6.6-4.4,10.6-4.4c2.8,0,5.6,0.8,8,2.3c18,11.4,37.6,19.5,58.3,24.2c6.9,1.5,11.7,7.6,11.7,14.6
	V487H285z"/>
<linearGradient id="SVGID_2_" gradientUnits="userSpaceOnUse" x1="236" y1="335.8275" x2="275.7422" y2="176.4303">
	<stop  offset="0" style="stop-color:#A439FF"/>
	<stop  offset="1" style="stop-color:#9794FF"/>
</linearGradient>
<path class="st1" d="M255.9,338.3c-45.3,0-82.1-36.8-82.1-82.1s36.8-82.1,82.1-82.1s82.1,36.8,82.1,82.1S301.2,338.3,255.9,338.3z
	 M255.9,201.1c-30.3,0-55,24.7-55,55s24.7,55,55,55s55-24.7,55-55S286.2,201.1,255.9,201.1z"/>
</svg>
