<?xml version="1.0" encoding="utf-8"?>
<!-- Generator: Adobe Illustrator 22.1.0, SVG Export Plug-In . SVG Version: 6.00 Build 0)  -->
<svg version="1.1" id="Capa_1" xmlns="http://www.w3.org/2000/svg" xmlns:xlink="http://www.w3.org/1999/xlink" x="0px" y="0px"
	 viewBox="0 0 60 60" style="enable-background:new 0 0 60 60;" xml:space="preserve">
<style type="text/css">
	.st0{fill:#707070;}
	.st1{fill:#A244FF;}
</style>
<path class="st0" d="M13,0c-1.5,0-3,0.7-4.1,1.8C7.9,3,7.4,4.5,7.5,6l0,0v49c0,2.8,2.3,5,5,5h40V11V9V0H13z M9.5,55V10
	c0.8,0.6,1.9,1,3,1v47C10.8,58,9.5,56.6,9.5,55z M50.3,11l0.2,47l0,0h-36V11 M13.2,9c-1.9,0-3.5-1.4-3.7-3.1c-0.1-1,0.2-2,0.9-2.7
	C11.1,2.4,12,2,13,2h37.5v1h-5c-0.6,0-1,0.4-1,1s0.4,1,1,1h5v1h-4c-0.6,0-1,0.4-1,1s0.4,1,1,1h4v1"/>
<g>
	<path class="st1" d="M43.9,27.5c-0.9-1-2.3-1.1-3.3-0.2l-10.5,9.5l-5.8-5.4c-1-0.9-2.4-0.9-3.3,0.1c-0.9,1-0.9,2.4,0.1,3.3l7.2,6.9
		c0.4,0.4,1.1,0.6,1.6,0.6c0.4,0,0.6-0.1,1-0.2c0.4-0.1,0.7-0.3,1-0.5l11.8-10.6C44.7,29.9,44.8,28.5,43.9,27.5z"/>
</g>
</svg>
