<?xml version="1.0" encoding="utf-8"?>
<!-- Generator: Adobe Illustrator 22.1.0, SVG Export Plug-In . SVG Version: 6.00 Build 0)  -->
<svg version="1.1" id="Capa_1" xmlns="http://www.w3.org/2000/svg" xmlns:xlink="http://www.w3.org/1999/xlink" x="0px" y="0px"
	 viewBox="0 0 60 60" style="enable-background:new 0 0 60 60;" xml:space="preserve">
<style type="text/css">
	.st0{fill:#707070;}
</style>
<path class="st0" d="M13,0c-1.5,0-3,0.7-4.1,1.8C7.9,3,7.4,4.5,7.5,6h0v49c0,2.8,2.3,5,5,5h40V11V9V0H13z M9.5,55V10
	c0.8,0.6,1.9,1,3,1v47C10.8,58,9.5,56.6,9.5,55z M50.5,58h-36V11h3v25.2c0,0.7,0.4,1.3,1.1,1.4c0.1,0,0.3,0.1,0.4,0.1c0,0,0,0,0,0
	c0,0,0.1,0,0.1,0c0.1,0,0.2,0,0.3-0.1c0,0,0.1,0,0.1-0.1c0.1,0,0.2-0.1,0.3-0.2c0,0,0.1,0,0.1-0.1c0.1-0.1,0.2-0.2,0.3-0.3l4.2-7
	l4.2,7c0.3,0.5,0.9,0.8,1.5,0.7c0,0,0.1,0,0.1,0c0.7-0.2,1.1-0.8,1.1-1.4V11h19L50.5,58L50.5,58z M29.6,9.5L29.6,9.5l-0.1,0.3v0
	L29.4,10l0.1,0.2v0.1v24.1l-5-8.3l-5,8.3V10.2L21.1,7h9.8L29.6,9.5z M32.1,9l2-4H19.9l-2,4h-4.7c-1.9,0-3.5-1.4-3.7-3.1
	c-0.1-1,0.2-2,0.9-2.7C11.1,2.4,12,2,13,2h37.5v1h-5c-0.6,0-1,0.4-1,1s0.4,1,1,1h5v1h-4c-0.6,0-1,0.4-1,1s0.4,1,1,1h4v1H32.1z"/>
</svg>
