<?xml version="1.0" encoding="utf-8"?>
<!-- Generator: Adobe Illustrator 22.1.0, SVG Export Plug-In . SVG Version: 6.00 Build 0)  -->
<svg version="1.1" id="Layer_1" xmlns="http://www.w3.org/2000/svg" xmlns:xlink="http://www.w3.org/1999/xlink" x="0px" y="0px"
	 viewBox="0 0 512 512" style="enable-background:new 0 0 512 512;" xml:space="preserve">
<style type="text/css">
	.st0{fill:url(#SVGID_1_);}
</style>
<linearGradient id="SVGID_1_" gradientUnits="userSpaceOnUse" x1="0" y1="256.0497" x2="512" y2="256.0497">
	<stop  offset="0" style="stop-color:#A439FF"/>
	<stop  offset="1" style="stop-color:#9794FF"/>
</linearGradient>
<path class="st0" d="M366.9,170.7h-17.1c-4.7,0-8.5,3.8-8.5,8.5s3.8,8.5,8.5,8.5h17.1c4.7,0,8.5-3.8,8.5-8.5
	S371.6,170.7,366.9,170.7z M366.9,204.8h-17.1c-4.7,0-8.5,3.8-8.5,8.5s3.8,8.5,8.5,8.5h17.1c4.7,0,8.5-3.8,8.5-8.5
	C375.5,208.6,371.6,204.8,366.9,204.8z M366.9,136.5h-17.1c-4.7,0-8.5,3.8-8.5,8.5s3.8,8.5,8.5,8.5h17.1c4.7,0,8.5-3.8,8.5-8.5
	C375.5,140.4,371.6,136.5,366.9,136.5z M366.9,409.6h-17.1c-4.7,0-8.5,3.8-8.5,8.5s3.8,8.5,8.5,8.5h17.1c4.7,0,8.5-3.8,8.5-8.5
	S371.6,409.6,366.9,409.6z M179.2,136.5H128c-4.7,0-8.5,3.8-8.5,8.5v119.5c0,4.7,3.8,8.5,8.5,8.5h51.2c4.7,0,8.5-3.8,8.5-8.5V145.1
	C187.7,140.4,183.9,136.5,179.2,136.5z M170.7,256h-34.1V153.6h34.1L170.7,256L170.7,256z M179.2,409.6H128c-4.7,0-8.5,3.8-8.5,8.5
	s3.8,8.5,8.5,8.5h51.2c4.7,0,8.5-3.8,8.5-8.5S183.9,409.6,179.2,409.6z M179.2,443.7H128c-4.7,0-8.5,3.8-8.5,8.5s3.8,8.5,8.5,8.5
	h51.2c4.7,0,8.5-3.8,8.5-8.5S183.9,443.7,179.2,443.7z M366.9,443.7h-17.1c-4.7,0-8.5,3.8-8.5,8.5s3.8,8.5,8.5,8.5h17.1
	c4.7,0,8.5-3.8,8.5-8.5C375.5,447.6,371.6,443.7,366.9,443.7z M469.3,443.7h-34.1c-4.7,0-8.5,3.8-8.5,8.5s3.8,8.5,8.5,8.5h34.1
	c4.7,0,8.5-3.8,8.5-8.5C477.9,447.6,474,443.7,469.3,443.7z M290.1,145.1c0-4.7-3.8-8.5-8.5-8.5h-34.1c-4.7,0-8.5,3.8-8.5,8.5v119.5
	c0,4.7,3.8,8.5,8.5,8.5h34.1c4.7,0,8.5-3.8,8.5-8.5V145.1z M273.1,256H256V153.6h17.1V256z M469.3,409.6h-34.1
	c-4.7,0-8.5,3.8-8.5,8.5s3.8,8.5,8.5,8.5h34.1c4.7,0,8.5-3.8,8.5-8.5S474,409.6,469.3,409.6z M281.6,443.7h-34.1
	c-4.7,0-8.5,3.8-8.5,8.5s3.8,8.5,8.5,8.5h34.1c4.7,0,8.5-3.8,8.5-8.5S286.3,443.7,281.6,443.7z M435.2,307.2c4.7,0,8.5-3.8,8.5-8.5
	v-85.3c0-4.7-3.8-8.5-8.5-8.5s-8.5,3.8-8.5,8.5v85.3C426.7,303.4,430.5,307.2,435.2,307.2z M477.9,213.3c0-4.7-3.8-8.5-8.5-8.5
	s-8.5,3.8-8.5,8.5v85.3c0,4.7,3.8,8.5,8.5,8.5s8.5-3.8,8.5-8.5V213.3z M486.4,68.3h-51.2c-4.7,0-8.5,3.8-8.5,8.5s3.8,8.5,8.5,8.5
	h51.2c4.7,0,8.5,3.8,8.5,8.5v392.5c0,4.7-3.8,8.5-8.5,8.5h-76.8V136.5h51.2c4.7,0,8.5-3.8,8.5-8.5s-3.8-8.5-8.5-8.5h-51.2V42.7
	c0-14.4-11.2-25.6-25.6-25.6h-51.2c-14.1,0-25.6,11.5-25.6,25.6V495h-85.3V51.2h59.7c4.7,0,8.5-3.8,8.5-8.5s-3.8-8.5-8.5-8.5h-59.7
	v-8.5c0-14.4-11.2-25.6-25.6-25.6H111C96.8,0,85.3,11.5,85.3,25.6v76.8H42.7c-4.7,0-8.5,3.8-8.5,8.5s3.8,8.5,8.5,8.5h42.7v375.5
	H25.6c-4.7,0-8.5-3.8-8.5-8.5V76.8c0-4.7,3.8-8.5,8.5-8.5h34.1c4.7,0,8.5-3.8,8.5-8.5s-3.8-8.5-8.5-8.5H25.6
	C11.5,51.2,0,62.7,0,76.8v409.6C0,500.5,11.5,512,25.6,512h460.8c14.1,0,25.6-11.5,25.6-25.6V93.9C512,79.8,500.5,68.3,486.4,68.3z
	 M204.8,494.9H102.4V68.3h76.8c4.7,0,8.5-3.8,8.5-8.5s-3.8-8.5-8.5-8.5h-76.8V25.6c0-4.8,3.7-8.5,8.5-8.5h85.3
	c4.9,0,8.5,3.7,8.5,8.5L204.8,494.9L204.8,494.9z M392.5,494.9h-68.3V85.3h42.7c4.7,0,8.5-3.8,8.5-8.5s-3.8-8.5-8.5-8.5h-42.7V42.7
	c0-4.8,3.7-8.5,8.5-8.5H384c4.9,0,8.5,3.7,8.5,8.5V494.9z M59.7,409.6h-17c-4.7,0-8.5,3.8-8.5,8.5s3.8,8.5,8.5,8.5h17.1
	c4.7,0,8.5-3.8,8.5-8.5S64.4,409.6,59.7,409.6z M59.7,443.7h-17c-4.7,0-8.5,3.8-8.5,8.5s3.8,8.5,8.5,8.5h17.1c4.7,0,8.5-3.8,8.5-8.5
	S64.4,443.7,59.7,443.7z M281.6,409.6h-34.1c-4.7,0-8.5,3.8-8.5,8.5s3.8,8.5,8.5,8.5h34.1c4.7,0,8.5-3.8,8.5-8.5
	S286.3,409.6,281.6,409.6z M59.7,204.8h-17c-4.7,0-8.5,3.8-8.5,8.5s3.8,8.5,8.5,8.5h17.1c4.7,0,8.5-3.8,8.5-8.5
	S64.4,204.8,59.7,204.8z M59.7,238.9h-17c-4.7,0-8.5,3.8-8.5,8.5s3.8,8.5,8.5,8.5h17.1c4.7,0,8.5-3.8,8.5-8.5S64.4,238.9,59.7,238.9
	z"/>
</svg>
