<?xml version="1.0" encoding="utf-8"?>
<!-- Generator: Adobe Illustrator 22.1.0, SVG Export Plug-In . SVG Version: 6.00 Build 0)  -->
<svg version="1.1" xmlns="http://www.w3.org/2000/svg" xmlns:xlink="http://www.w3.org/1999/xlink" x="0px" y="0px"
	 viewBox="0 0 512 512" style="enable-background:new 0 0 512 512;" xml:space="preserve">
<style type="text/css">
	.st0{opacity:0.85;fill:#1A1A1A;}
	.st1{fill:url(#SVGID_1_);}
</style>
<g id="Calque_2">
	<path class="st0" d="M466,512H46c-25.3,0-46-20.7-46-46V46C0,20.7,20.7,0,46,0h420c25.3,0,46,20.7,46,46v420
		C512,491.3,491.3,512,466,512z"/>
</g>
<g id="Calque_3">
	<radialGradient id="SVGID_1_" cx="256" cy="256" r="144.6702" gradientUnits="userSpaceOnUse">
		<stop  offset="0" style="stop-color:#7849FF"/>
		<stop  offset="1" style="stop-color:#A244FF"/>
	</radialGradient>
	<path class="st1" d="M396.1,111.3c-0.4,0-0.8,0-1.2,0.1l-56.6,14.1c-3.5,0.9-4.7,5.3-2.2,7.8l17.7,17.7l-51.3,51.3
		c-4.9,4.7,2.4,12,7.1,7.1l51.3-51.3l17.7,17.7c2.6,2.6,6.9,1.3,7.8-2.2l14.1-56.6C401.3,114.2,399.1,111.4,396.1,111.3z
		 M116.2,111.3c-3.1-0.1-5.5,2.8-4.7,5.8l14.1,56.6c0.9,3.5,5.3,4.7,7.8,2.2l17.7-17.7l51.3,51.3c4.7,4.9,12-2.4,7.1-7.1l-51.3-51.3
		l17.7-17.7c2.6-2.6,1.4-6.9-2.2-7.8l-56.6-14.1C116.8,111.4,116.5,111.3,116.2,111.3z M122.4,122.4l41,10.3l-30.8,30.8L122.4,122.4
		z M389.6,122.4l-10.3,41l-30.8-30.8L389.6,122.4z M305.9,300.9c-4.5,0-6.7,5.5-3.5,8.6l51.3,51.3l-17.7,17.7
		c-2.6,2.6-1.4,6.9,2.2,7.8l56.6,14.1c3.4,0.9,6.5-2.2,5.7-5.7l-14.1-56.6c-0.5-2-2.3-3.5-4.4-3.5c-1.3,0-2.5,0.5-3.4,1.4
		l-17.7,17.7l-51.3-51.3C308.6,301.5,307.3,300.9,305.9,300.9z M205.9,300.9c-1.3,0-2.5,0.6-3.4,1.5l-51.3,51.3l-17.7-17.7
		c-0.9-0.9-2.1-1.4-3.4-1.4c-2.1,0-3.9,1.5-4.5,3.5l-14.1,56.6c-0.9,3.4,2.2,6.5,5.7,5.7l56.6-14.1c3.5-0.9,4.7-5.3,2.2-7.8
		l-17.7-17.7l51.3-51.3C212.8,306.4,210.5,300.8,205.9,300.9z M132.7,348.6l30.8,30.8l-41,10.3L132.7,348.6z M379.3,348.6l10.3,41
		l-41-10.3L379.3,348.6z"/>
</g>
</svg>
