<?xml version="1.0" encoding="utf-8"?>
<!-- Generator: Adobe Illustrator 23.0.0, SVG Export Plug-In . SVG Version: 6.00 Build 0)  -->
<svg version="1.1" id="Capa_1" xmlns="http://www.w3.org/2000/svg" xmlns:xlink="http://www.w3.org/1999/xlink" x="0px" y="0px"
	 viewBox="0 0 512 512" style="enable-background:new 0 0 512 512;" xml:space="preserve">
<style type="text/css">
	.st0{fill:#FFFFFF;}
</style>
<path class="st0" d="M470.4,227l-67.8-67.8V69.7c0-7.3-5.9-13.2-13.2-13.2h-53c-7.3,0-13.2,5.9-13.2,13.2v10.1L285,41.6
	c-15.6-15.6-40.7-15.5-56.2-0.1L41.6,227c-15.5,15.5-15.5,40.6,0,56.2c11.3,11.5,27.5,14.4,41.3,9.5v176.1c0,7.3,5.9,13.2,13.2,13.2
	h319.6c7.3,0,13.2-5.9,13.2-13.2V292.6c13.8,4.9,30,1.9,41.3-9.4c7.5-7.5,11.7-17.5,11.7-28.1C482,244.5,477.9,234.5,470.4,227z
	 M349.6,82.9h26.5v49.8l-26.5-26.5V82.9z M296.6,455.5h-79.5V347.8h79.5V455.5z M402.6,455.5h-79.5v-121c0-7.3-5.9-13.2-13.2-13.2
	H203.9c-7.3,0-13.2,5.9-13.2,13.2v121h-81.2V271.7l147.4-145.9l145.7,145.7V455.5z M451.7,264.5c-5.2,5.2-13.5,5.2-18.7,0
	c-5.7-5.7-153-153-166.7-166.7c-5.1-5.1-13.5-5.2-18.7-0.1C239.8,105.6,85.6,258,79.1,264.5c-5.1,5.1-13.6,5.1-18.7,0
	c-5.1-5.1-5.1-13.6,0-18.7L247.5,60.3c5.2-5.2,13.5-5.2,18.7,0c11.6,11.6,180.1,180.1,185.4,185.4
	C456.9,250.9,456.9,259.4,451.7,264.5z M256.9,188.9c-29.2,0-53,23.8-53,53s23.8,53,53,53s53-23.8,53-53S286.1,188.9,256.9,188.9z
	 M256.9,268.4c-14.6,0-26.5-11.9-26.5-26.5s11.9-26.5,26.5-26.5c14.6,0,26.5,11.9,26.5,26.5S271.5,268.4,256.9,268.4z"/>
</svg>
