<?xml version="1.0" encoding="utf-8"?>
<!-- Generator: Adobe Illustrator 22.1.0, SVG Export Plug-In . SVG Version: 6.00 Build 0)  -->
<svg version="1.1" id="Capa_1" xmlns="http://www.w3.org/2000/svg" xmlns:xlink="http://www.w3.org/1999/xlink" x="0px" y="0px"
	 viewBox="0 0 512 512" style="enable-background:new 0 0 512 512;" xml:space="preserve">
<style type="text/css">
	.st0{fill:url(#SVGID_1_);}
</style>
<linearGradient id="SVGID_1_" gradientUnits="userSpaceOnUse" x1="184.9792" y1="539.8824" x2="317.7674" y2="7.298">
	<stop  offset="0" style="stop-color:#A439FF"/>
	<stop  offset="1" style="stop-color:#9794FF"/>
</linearGradient>
<path class="st0" d="M498.8,223.2L422,146.4V45c0-8.3-6.7-15-15-15h-60c-8.3,0-15,6.7-15,15v11.4l-43.2-43.2
	c-17.7-17.7-46.1-17.5-63.6-0.1l-212,210c-17.6,17.6-17.6,46,0,63.6C26,299.7,44.4,303,60,297.5V497c0,8.3,6.7,15,15,15h362
	c8.3,0,15-6.7,15-15V297.5c15.6,5.5,34,2.2,46.8-10.6c8.5-8.5,13.2-19.8,13.2-31.8C512,243,507.3,231.7,498.8,223.2z M362,60h30
	v56.4l-30-30V60z M302,482h-90V360h90V482z M422,482h-90V345c0-8.3-6.7-15-15-15H197c-8.3,0-15,6.7-15,15v137H90V273.8L257,108.6
	L422,273.6V482z M477.6,265.6c-5.9,5.9-15.3,5.9-21.2,0C450,259.2,283.1,92.3,267.6,76.8c-5.8-5.8-15.3-5.9-21.2-0.1
	C237.6,85.6,63,258.3,55.6,265.6c-5.8,5.8-15.4,5.8-21.2,0c-5.8-5.8-5.8-15.4,0-21.2l212-210c5.9-5.9,15.3-5.9,21.2,0
	c13.1,13.1,204,204,210,210C483.5,250.2,483.5,259.8,477.6,265.6z M257,180c-33.1,0-60,26.9-60,60s26.9,60,60,60s60-26.9,60-60
	S290.1,180,257,180z M257,270c-16.5,0-30-13.5-30-30s13.5-30,30-30c16.5,0,30,13.5,30,30S273.5,270,257,270z"/>
</svg>
