<?xml version="1.0" encoding="utf-8"?>
<!-- Generator: Adobe Illustrator 23.0.0, SVG Export Plug-In . SVG Version: 6.00 Build 0)  -->
<svg version="1.1" id="Calque_1" xmlns="http://www.w3.org/2000/svg" xmlns:xlink="http://www.w3.org/1999/xlink" x="0px" y="0px"
	 viewBox="0 0 512 512" style="enable-background:new 0 0 512 512;" xml:space="preserve">
<style type="text/css">
	.st0{fill:#9D6FFB;}
	.st1{fill:#FFFFFF;}
</style>
<g>
	<path class="st0" d="M256,19c32,0,63,6.3,92.2,18.6c28.2,11.9,53.6,29,75.3,50.8c21.8,21.8,38.9,47.1,50.8,75.3
		C486.7,193,493,224,493,256s-6.3,63-18.6,92.2c-11.9,28.2-29,53.6-50.8,75.3c-21.8,21.8-47.1,38.9-75.3,50.8
		C319,486.7,288,493,256,493s-63-6.3-92.2-18.6c-28.2-11.9-53.6-29-75.3-50.8c-21.8-21.8-38.9-47.1-50.8-75.3
		C25.3,319,19,288,19,256s6.3-63,18.6-92.2c11.9-28.2,29-53.6,50.8-75.3c21.8-21.8,47.1-38.9,75.3-50.8C193,25.3,224,19,256,19
		 M256,0C114.6,0,0,114.6,0,256s114.6,256,256,256s256-114.6,256-256S397.4,0,256,0L256,0z"/>
</g>
<g>
	<path class="st1" d="M325.2,386.6l-4.7,19c-14,5.5-25.1,9.7-33.4,12.6c-8.3,2.9-18,4.3-29,4.3c-16.9,0-30.1-4.1-39.4-12.4
		c-9.4-8.3-14.1-18.7-14.1-31.4c0-4.9,0.3-10,1-15.1c0.7-5.2,1.8-11,3.4-17.5l17.5-61.8c1.6-5.9,2.9-11.5,3.9-16.8
		c1.1-5.3,1.6-10.1,1.6-14.5c0-7.9-1.6-13.4-4.9-16.5c-3.3-3.1-9.5-4.7-18.7-4.7c-4.5,0-9.2,0.7-13.9,2.1c-4.7,1.4-8.8,2.8-12.2,4
		l4.7-19c11.4-4.7,22.4-8.6,32.8-12c10.5-3.3,20.3-5,29.7-5c16.8,0,29.7,4.1,38.8,12.2c9.1,8.1,13.6,18.7,13.6,31.6
		c0,2.7-0.3,7.4-0.9,14.2c-0.6,6.8-1.8,13-3.5,18.6l-17.4,61.5c-1.4,4.9-2.7,10.6-3.8,17c-1.1,6.3-1.7,11.1-1.7,14.4
		c0,8.2,1.8,13.7,5.5,16.7c3.7,3,10,4.4,19,4.4c4.2,0,9-0.7,14.4-2.2C318.9,389.1,322.8,387.8,325.2,386.6z M329.6,128.3
		c0,10.7-4,19.9-12.2,27.4c-8.1,7.6-17.9,11.3-29.3,11.3c-11.5,0-21.2-3.8-29.4-11.3c-8.2-7.5-12.3-16.7-12.3-27.4
		c0-10.7,4.1-19.9,12.3-27.5c8.2-7.6,18-11.4,29.4-11.4c11.4,0,21.2,3.8,29.3,11.4C325.6,108.4,329.6,117.6,329.6,128.3z"/>
</g>
</svg>
