<?xml version="1.0" encoding="utf-8"?>
<!-- Generator: Adobe Illustrator 23.0.0, SVG Export Plug-In . SVG Version: 6.00 Build 0)  -->
<svg version="1.1" id="Capa_1" xmlns="http://www.w3.org/2000/svg" xmlns:xlink="http://www.w3.org/1999/xlink" x="0px" y="0px"
	 viewBox="0 0 60 60" style="enable-background:new 0 0 60 60;" xml:space="preserve">
<style type="text/css">
	.st0{fill:#FFFFFF;}
</style>
<path class="st0" d="M30,60C13.4,60,0,46.5,0,30C0,13.4,13.5,0,30.1,0C46.6,0,60,13.5,60,30C60,46.6,46.6,60,30,60z M30,1.8
	C14.3,1.8,1.7,14.4,1.8,30c0,15.6,12.7,28.2,28.3,28.2s28.2-12.7,28.2-28.3C58.2,14.3,45.6,1.7,30,1.8z"/>
<path class="st0" d="M33.4,15c-2.5-0.9-5-1-7.5-0.1c-1.5,0.5-2.8,1.3-3.5,2.8c-0.4,0.7-0.6,1.5,0.2,2.1c0.8,0.6,1.4,0.1,1.9-0.6
	c0.9-1.2,2.1-1.9,3.6-2.2c2.6-0.4,5,0.5,6.1,2.3c1.1,2,0.7,4.4-1.2,6.4c-0.6,0.7-1.3,1.3-2.1,1.9c-2.1,1.7-3.1,3.9-3.1,6.9
	c0,0.1,0,0.5,0,0.9c0,0.7,0.3,1,1,1c1,0,1.6-0.2,1.5-1.4c-0.2-2.6,0.9-4.7,2.9-6.3c0.5-0.4,0.9-0.7,1.3-1.2c0.9-1.2,2-2.3,2.6-3.6
	C38.9,20.2,37.3,16.4,33.4,15z"/>
<path class="st0" d="M28.9,41.4c-1.1,0-2,0.9-2,2.1s1,2.2,2.1,2.2c1.2,0,2.1-1,2.1-2.2S30.1,41.4,28.9,41.4z"/>
</svg>
