<?xml version="1.0" encoding="utf-8"?>
<!-- Generator: Adobe Illustrator 22.1.0, SVG Export Plug-In . SVG Version: 6.00 Build 0)  -->
<svg version="1.1" id="Calque_1" xmlns="http://www.w3.org/2000/svg" xmlns:xlink="http://www.w3.org/1999/xlink" x="0px" y="0px"
	 viewBox="0 0 511 512" style="enable-background:new 0 0 511 512;" xml:space="preserve">
<style type="text/css">
	.st0{fill:url(#SVGID_1_);}
</style>
<linearGradient id="SVGID_1_" gradientUnits="userSpaceOnUse" x1="185.2331" y1="481.0977" x2="298.3778" y2="27.2991">
	<stop  offset="0" style="stop-color:#E7175A"/>
	<stop  offset="1" style="stop-color:#EA396F"/>
</linearGradient>
<path class="st0" d="M276.5,490.3l90.8-91.2c5.3-5.3,5.3-13.9,0-19.1c-5.3-5.3-13.9-5.3-19.1,0l-90.8,91.2l-193-193.8
	c-46.1-46.3-46.1-121.6,0-167.9c22.3-22.4,52-34.8,83.5-34.8s61.2,12.3,83.5,34.8l16.3,16.4c2.5,2.6,6,4,9.6,4c3.6,0,7.1-1.4,9.6-4
	l15.4-15.5c22.3-22.4,51.9-34.7,83.4-34.7h0c31.5,0,61.1,12.3,83.4,34.7l0.3,0.3c46,46.2,46,121.4,0,167.6l-58.9,59.1
	c-5.3,5.3-5.3,13.9,0,19.1c5.3,5.3,13.9,5.3,19.1,0l58.9-59.1c56.5-56.7,56.5-149.1,0-205.8l-0.3-0.3
	c-27.4-27.5-63.8-42.7-102.6-42.7c0,0,0,0,0,0c-38.7,0-75.2,15.1-102.6,42.6l-5.8,5.9l-6.7-6.7c-27.4-27.5-63.9-42.7-102.7-42.7
	S72.6,62.8,45.1,90.3c-56.6,56.8-56.6,149.3,0,206.1l193,193.8c5.1,5.1,11.9,8,19.2,8C264.6,498.2,271.4,495.4,276.5,490.3z"/>
</svg>
