<?xml version="1.0" encoding="utf-8"?>
<!-- Generator: Adobe Illustrator 22.1.0, SVG Export Plug-In . SVG Version: 6.00 Build 0)  -->
<svg version="1.1" id="Layer_1" xmlns="http://www.w3.org/2000/svg" xmlns:xlink="http://www.w3.org/1999/xlink" x="0px" y="0px"
	 viewBox="0 0 512 512" style="enable-background:new 0 0 512 512;" xml:space="preserve">
<style type="text/css">
	.st0{fill:#9D6AFF;}
</style>
<path class="st0" d="M256,405.2c-5,0-9-4-9-9v-31.9l-3.7-1.5c-12.9-5.3-21.3-17.7-21.3-31.6c0-18.7,15.3-34,34-34
	c18.7,0,34,15.3,34,34c0,13.9-8.3,26.3-21.2,31.5l-3.8,1.5v31.9C265,401.1,261,405.2,256,405.2z M256,315.2c-8.8,0-16,7.2-16,16
	s7.2,16,16,16s16-7.2,16-16S264.8,315.2,256,315.2z"/>
<path class="st0" d="M408.3,190.4V137C408.3,60.9,340-1,256-1S103.7,60.9,103.7,137v53.4c-32.4,5.6-57.1,33.8-57.1,67.7v186
	c0,37.9,30.9,68.8,68.8,68.8h281.2c37.9,0,68.8-30.9,68.8-68.8v-186C465.4,224.2,440.7,196,408.3,190.4z M122.7,137
	c0-65.6,59.8-119,133.3-119s133.3,53.4,133.3,119v52.4H122.7V137z M446.4,444.2c0,27.4-22.3,49.8-49.8,49.8H115.4
	c-27.4,0-49.8-22.3-49.8-49.8v-186c0-27.4,22.3-49.8,49.8-49.8h281.2c27.4,0,49.8,22.3,49.8,49.8V444.2z"/>
</svg>
