<?xml version="1.0" encoding="utf-8"?>
<!-- Generator: Adobe Illustrator 22.1.0, SVG Export Plug-In . SVG Version: 6.00 Build 0)  -->
<svg version="1.1" id="Capa_1" xmlns="http://www.w3.org/2000/svg" xmlns:xlink="http://www.w3.org/1999/xlink" x="0px" y="0px"
	 viewBox="0 0 512 512" style="enable-background:new 0 0 512 512;" xml:space="preserve">
<style type="text/css">
	.st0{fill:url(#SVGID_1_);}
</style>
<linearGradient id="SVGID_1_" gradientUnits="userSpaceOnUse" x1="197.4108" y1="533.1449" x2="338.6616" y2="-33.3811">
	<stop  offset="0" style="stop-color:#A439FF"/>
	<stop  offset="1" style="stop-color:#9794FF"/>
</linearGradient>
<path class="st0" d="M467,0c-22.5,0-41.2,16.6-44.5,38.3l-1.2,1.2c-51.9,51.9-125.1,82-196,80.5c-0.1,0-0.1,0-0.2,0c0,0-0.1,0-0.1,0
	H75c-41.4,0-75,33.6-75,75v60c0,36.2,25.8,66.5,60,73.5V452c0,33.1,26.9,60,60,60s60-26.9,60-60V329.8h45
	c78.9,0,146.3,30.7,193.8,78.2l3.7,3.7c3.2,21.6,22,38.3,44.5,38.3c24.8,0,45-20.2,45-45V45C512,20.2,491.8,0,467,0z M150,452
	c0,16.5-13.5,30-30,30s-30.2-13.5-30.2-30V329.8H150V452z M210,300H75c-24.8,0-45.2-20.2-45.2-45v-60c0-24.8,20.4-45.2,45.2-45.2
	h135L210,300L210,300z M422,370.3c-50.4-42.5-115.3-67.5-182.2-70V149.9c34.5-1.2,69.9-8.9,102.8-22.5c28.6-11.8,55.6-28.2,79.4-48
	L422,370.3L422,370.3z M482,405c0,8.3-6.7,15-15,15c-8.3,0-15-6.7-15-15c0,0,0,0,0,0V45c0,0,0,0,0,0c0-8.3,6.7-15,15-15
	c8.3,0,15,6.7,15,15V405z M165,180H75c-8.3,0-15,6.7-15,15s6.5,14.8,14.8,14.8h90c8.3,0,15.2-6.5,15.2-14.8S173.3,180,165,180z
	 M165,240H75c-8.3,0-15,6.7-15,15c0,8.3,6.5,14.8,14.8,14.8h90c8.3,0,15.2-6.5,15.2-14.8C180,246.7,173.3,240,165,240z"/>
</svg>
