<?xml version="1.0" encoding="utf-8"?>
<!-- Generator: Adobe Illustrator 22.1.0, SVG Export Plug-In . SVG Version: 6.00 Build 0)  -->
<svg version="1.1" id="Calque_1" xmlns="http://www.w3.org/2000/svg" xmlns:xlink="http://www.w3.org/1999/xlink" x="0px" y="0px"
	 viewBox="0 0 512 512" style="enable-background:new 0 0 512 512;" xml:space="preserve">
<style type="text/css">
	.st0{fill:url(#SVGID_1_);}
</style>
<g id="Capa_1">
	
		<linearGradient id="SVGID_1_" gradientUnits="userSpaceOnUse" x1="11.4" y1="257.95" x2="500.6" y2="257.95" gradientTransform="matrix(1 0 0 -1 0 514)">
		<stop  offset="0" style="stop-color:#A439FF"/>
		<stop  offset="1" style="stop-color:#9794FF"/>
	</linearGradient>
	<path class="st0" d="M385.8,268.8V18.9c0-10.4-8.5-18.9-18.9-18.9c-4,0-306.4,0-310.7,0l0,0C31.5,0,11.4,20.1,11.4,44.8v384.9
		c0,24.7,20.1,44.8,44.8,44.8H289c18.7,20,43.6,33.2,70.6,37.3c4.1,0.6,7.9-2.2,8.6-6.3c0.6-4.1-2.2-7.9-6.3-8.6
		C310,489.1,271,443.4,271,391c0-59.2,48.1-107.3,107.3-107.3l0,0c59.2,0,107.3,48.1,107.3,107.3c0,52.5-39.1,98.1-90.9,106.1
		c-4.1,0.6-6.9,4.5-6.3,8.6c0.6,3.7,3.8,6.4,7.4,6.4c0.4,0,0.8,0,1.1-0.1c28.6-4.4,54.8-18.9,73.9-40.9
		c19.2-22.2,29.8-50.6,29.8-80.1C500.6,326,449.8,272.7,385.8,268.8z M56.2,15h0.7v369.9c-12.2,0-22.5,4.2-30.5,11.4V44.8l0,0
		C26.4,28.4,39.8,15,56.2,15z M277,459.6H56.2c-16.4,0-29.8-13.4-29.8-29.8S39.8,400,56.2,400h200.1c0.2,3.3,0.6,6.6,1.1,9.8H80.9
		c-4.2,0-7.5,3.4-7.5,7.5s3.4,7.5,7.5,7.5h179.8c1,3.3,2.1,6.6,3.3,9.8H80.9c-4.2,0-7.5,3.4-7.5,7.5s3.4,7.5,7.5,7.5h190
		C272.8,453.1,274.8,456.4,277,459.6z M370.8,268.8c-62.3,3.8-111.8,54.4-114.7,116.1H72V15h294.9c2.1,0,3.9,1.7,3.9,3.9V268.8
		L370.8,268.8z M227.5,36.9h-17.3c-4.2,0-7.5,3.4-7.5,7.5s3.4,7.5,7.5,7.5h17.3c4.2,0,7.5-3.4,7.5-7.5S231.7,36.9,227.5,36.9z
		 M308.8,119c4.2,0,7.5-3.4,7.5-7.5V85.1c0-8.4-6.8-15.2-15.2-15.2H136.7c-8.4,0-15.2,6.8-15.2,15.2v87.8c0,8.4,6.8,15.2,15.2,15.2
		H301c8.4,0,15.2-6.8,15.2-15.2v-26.4c0-4.2-3.4-7.5-7.5-7.5s-7.5,3.4-7.5,7.5v26.4c0,0.1-0.1,0.2-0.2,0.2H136.7
		c-0.1,0-0.2-0.1-0.2-0.2V85.1c0-0.1,0.1-0.2,0.2-0.2H301c0.1,0,0.2,0.1,0.2,0.2v26.4C301.2,115.6,304.6,119,308.8,119z M432,449
		h-10.3v-12.4c0-18-9.3-34.5-24.7-44.3c15.5-9.8,24.7-26.3,24.7-44.3v-12.4H432c3.1,0,5.2-2.1,5.2-5.2c0-3.1-2.1-5.2-5.2-5.2h-10.3
		h-5.2h-72.2h-5.2h-10.3c-3.1,0-5.2,2.1-5.2,5.2c0,3.1,2.1,5.2,5.2,5.2h10.3V348c0,18,9.3,34.5,24.7,44.3
		c-15.5,9.8-24.7,26.3-24.7,44.3V449h-10.3c-3.1,0-5.2,2.1-5.2,5.2c0,3.1,2.1,5.2,5.2,5.2h10.3h5.2h72.2h5.2H432
		c3.1,0,5.2-2.1,5.2-5.2C437.1,451.1,435.1,449,432,449z M349.5,348v-12.4h61.9V348c0,17-10.3,32.5-26.8,39.2h-8.2
		C359.8,380.4,349.5,365,349.5,348z M411.4,449h-61.9v-12.4c0-17,10.3-32.5,26.8-39.2h8.2c16.5,6.7,26.8,22.2,26.8,39.2V449z"/>
</g>
<g id="Calque_2_1_">
</g>
</svg>
