<?xml version="1.0" encoding="utf-8"?>
<!-- Generator: Adobe Illustrator 23.0.0, SVG Export Plug-In . SVG Version: 6.00 Build 0)  -->
<svg version="1.1" id="Calque_1" xmlns="http://www.w3.org/2000/svg" xmlns:xlink="http://www.w3.org/1999/xlink" x="0px" y="0px"
	 viewBox="0 0 409 409" style="enable-background:new 0 0 409 409;" xml:space="preserve">
<style type="text/css">
	.st0{fill:#D391FF;}
	.st1{fill:#EDD6FF;}
	.st2{fill:#9100F7;}
	.st3{fill:#FFFFFF;}
</style>
<path class="st0" d="M132.3,132.3l144.3,144.3l-98.9,98.9c-29.5,29.5-77.2,29.5-106.8,0L33.4,338C4,308.6,4,260.8,33.4,231.2
	L132.3,132.3z"/>
<path class="st1" d="M276.7,276.7L132.3,132.3l98.9-98.9C260.7,4,308.5,4,338.1,33.4l37.5,37.5c29.5,29.5,29.5,77.2,0,106.8
	L276.7,276.7z"/>
<path class="st2" d="M383.6,62.9l-32-32.1c-0.3-0.3-0.6-0.6-0.9-0.8l-4.5-4.5C329.7,9,307.9,0,284.7,0c-23.2,0-45,9-61.4,25.4
	l-90.9,90.9l-0.1-0.1l-106.9,107C9,239.7,0,261.5,0,284.7s9,45,25.4,61.4l37.5,37.5C79.3,400,101.1,409,124.3,409
	c23.3,0,45-9,61.5-25.4l197.8-197.9c16.4-16.4,25.4-38.2,25.4-61.4S400,79.3,383.6,62.9z M239.4,41.6c12.1-12.1,28.2-18.8,45.3-18.8
	c17.1,0,33.2,6.7,45.3,18.8l8.3,8.3c22.2,25.2,21.2,63.7-2.8,87.8l-90.9,90.9l-96.2-96.2L239.4,41.6z M22.7,284.6
	c0-17.1,6.7-33.2,18.8-45.3l90.9-90.9l96.2,96.2l-90.8,90.8c-25,25-65.8,25-90.8,0l-5.5-5.5C29.4,317.8,22.7,301.8,22.7,284.6z"/>
<path class="st3" d="M188.6,306h-17.9v-17.8c0-8.7-7.1-15.9-15.9-15.9c-8.7,0-15.9,7.1-15.9,15.9V306H121c-8.7,0-15.9,7.1-15.9,15.9
	s7.1,16.1,15.9,15.9h17.9v18c0,8.7,7.1,15.9,15.9,15.9c8.8,0,16.1-7.3,15.9-15.9v-18h17.9c8.7,0,15.9-7.1,15.9-15.9
	C204.5,313.3,197.4,306,188.6,306z"/>
</svg>
