<?xml version="1.0" encoding="utf-8"?>
<!-- Generator: Adobe Illustrator 23.0.0, SVG Export Plug-In . SVG Version: 6.00 Build 0)  -->
<svg version="1.1" id="Calque_1" xmlns="http://www.w3.org/2000/svg" xmlns:xlink="http://www.w3.org/1999/xlink" x="0px" y="0px"
	 viewBox="0 0 409 409" style="enable-background:new 0 0 409 409;" xml:space="preserve">
<style type="text/css">
	.st0{fill:#999999;}
</style>
<path class="st0" d="M343.8,94.4l-24.9-25c-0.2-0.2-0.5-0.5-0.7-0.6l-3.5-3.5c-12.8-12.8-29.8-19.8-47.8-19.8s-35,7-47.7,19.7
	l-70.7,70.7l-0.1-0.1L65.2,219c-12.8,12.8-19.7,29.8-19.7,47.8c0,18,7,35,19.7,47.7l29.2,29.2c12.8,12.8,29.7,19.7,47.7,19.7
	c18.1,0,35-7,47.8-19.7l153.8-153.9c12.8-12.8,19.7-29.7,19.7-47.7S356.5,107.2,343.8,94.4z M231.6,77.8
	c9.4-9.4,21.9-14.6,35.2-14.6s25.8,5.2,35.2,14.6l6.5,6.5c17.3,19.6,16.5,49.5-2.2,68.3l-70.7,70.7l-74.8-74.8L231.6,77.8z
	 M63.1,266.8c0-13.3,5.2-25.8,14.6-35.2l70.7-70.7l74.8,74.8l-70.6,70.6c-19.4,19.4-51.2,19.4-70.6,0l-4.3-4.3
	C68.4,292.6,63.1,280.2,63.1,266.8z"/>
</svg>
