<?xml version="1.0" encoding="utf-8"?>
<!-- Generator: Adobe Illustrator 22.1.0, SVG Export Plug-In . SVG Version: 6.00 Build 0)  -->
<svg version="1.1" id="Capa_1" xmlns="http://www.w3.org/2000/svg" xmlns:xlink="http://www.w3.org/1999/xlink" x="0px" y="0px"
	 viewBox="0 0 489.9 489.9" style="enable-background:new 0 0 489.9 489.9;" xml:space="preserve">
<style type="text/css">
	.st0{fill:url(#SVGID_1_);}
</style>
<linearGradient id="SVGID_1_" gradientUnits="userSpaceOnUse" x1="-6.141067e-04" y1="244.9405" x2="489.8824" y2="244.9405">
	<stop  offset="0" style="stop-color:#A439FF"/>
	<stop  offset="1" style="stop-color:#9794FF"/>
</linearGradient>
<path class="st0" d="M486.8,363.4l-73.4-73.4c3.2-8.9,2.2-18.7,1.3-27.6c-0.7-6.8-1.4-13.2-0.1-17.8c1.1-4.3,4.8-9.3,8.7-14.7
	c6.3-8.7,13.5-18.6,13.5-30.8c0-12.2-7.2-22.1-13.5-30.8c-3.9-5.3-7.5-10.4-8.7-14.7c-1.2-4.7-0.6-11.1,0.1-17.8
	c1.1-10.5,2.3-22.5-3.6-32.7c-6-10.3-17-15.2-26.8-19.6c-6.1-2.7-12-5.3-15.2-8.6c-3.3-3.3-5.9-9.1-8.6-15.2
	c-4.3-9.7-9.2-20.8-19.6-26.8c-5.3-3.1-11.4-4.5-19.3-4.5c-4.5,0-9,0.5-13.4,0.9c-4,0.4-7.9,0.8-11.3,0.8c-2.6,0-4.7-0.2-6.5-0.7
	c-4.3-1.1-9.3-4.8-14.7-8.7c-8.7-6.3-18.6-13.5-30.8-13.5c-12.2,0-22.1,7.2-30.8,13.5c-5.3,3.9-10.4,7.5-14.7,8.7
	c-1.7,0.5-3.9,0.7-6.5,0.7c-3.5,0-7.3-0.4-11.3-0.8c-4.4-0.5-8.9-0.9-13.4-0.9c-7.9,0-14,1.4-19.3,4.5c-10.3,6-15.2,17-19.6,26.8
	c-2.7,6.1-5.3,12-8.6,15.2c-3.3,3.3-9.1,5.9-15.2,8.6c-9.7,4.3-20.8,9.2-26.8,19.6c-5.9,10.2-4.7,22.1-3.6,32.7
	c0.7,6.8,1.4,13.2,0.1,17.8c-1.2,4.3-4.8,9.3-8.7,14.7c-6.3,8.7-13.5,18.6-13.5,30.8s7.2,22.1,13.5,30.8c3.9,5.3,7.5,10.4,8.7,14.7
	c1.2,4.7,0.6,11.1-0.1,17.8c-0.9,8.8-1.9,18.6,1.3,27.6L3.1,363.4c-2.8,2.8-3.8,7-2.5,10.8c1.3,3.8,4.6,6.5,8.6,7l81.6,10.6
	l10.6,81.6c0.5,4,3.2,7.3,7,8.6c1.1,0.4,2.2,0.6,3.4,0.6c2.7,0,5.4-1.1,7.4-3.1l99.1-99.1c7.7,5.4,16.3,10.5,26.6,10.5
	s18.9-5.1,26.6-10.5l99.1,99.1c2,2,4.7,3.1,7.4,3.1c1.1,0,2.3-0.2,3.4-0.6c3.8-1.3,6.5-4.6,7-8.6l10.6-81.6l81.6-10.6
	c4-0.5,7.3-3.2,8.6-7C490.6,370.4,489.6,366.2,486.8,363.4z M110.6,381.1c-0.6-4.7-4.3-8.4-9.1-9.1L33,363.1l56.7-56.7
	c5,3.4,10.6,5.9,15.8,8.2c6.1,2.7,12,5.3,15.2,8.6c3.3,3.3,5.9,9.1,8.6,15.2c4.3,9.7,9.2,20.8,19.6,26.8c5.3,3.1,11.4,4.5,19.3,4.5
	c4.5,0,9-0.5,13.4-0.9c4-0.4,7.9-0.8,11.3-0.8c2.6,0,4.7,0.2,6.5,0.7c0.2,0.1,0.4,0.1,0.7,0.2l-80.7,80.7L110.6,381.1z M226.5,360.4
	c-6.6-4.8-13.5-9.8-21.6-12c-3.5-0.9-7.4-1.4-11.9-1.4c-4.6,0-9.1,0.5-13.5,0.9c-4,0.4-7.8,0.8-11.2,0.8c-4,0-6.8-0.5-8.8-1.7
	c-4.4-2.6-7.7-10-10.9-17.1c-3.4-7.6-6.9-15.5-12.9-21.6c-6-6-13.9-9.6-21.6-12.9c-7.2-3.2-14.6-6.5-17.1-10.9
	c-2.5-4.3-1.7-12.3-0.9-20c0.9-8.4,1.8-17-0.5-25.4c-2.2-8.1-7.2-15-12-21.6c-4.9-6.7-9.5-13.1-9.5-18.4c0-5.4,4.6-11.7,9.5-18.4
	c4.8-6.6,9.8-13.5,12-21.6c2.2-8.4,1.3-17,0.5-25.4c-0.8-7.7-1.6-15.7,0.9-20c2.6-4.4,10-7.7,17.1-10.9c7.6-3.4,15.5-6.9,21.6-12.9
	c6-6,9.6-13.9,12.9-21.6c3.2-7.2,6.5-14.6,10.9-17.1c1.9-1.1,4.8-1.7,8.8-1.7c3.4,0,7.2,0.4,11.2,0.8c4.4,0.5,8.9,0.9,13.5,0.9
	c4.5,0,8.4-0.5,11.9-1.4c8.1-2.2,15-7.2,21.6-12c6.7-4.9,13-9.5,18.4-9.5c5.4,0,11.7,4.6,18.4,9.5c6.6,4.8,13.5,9.8,21.6,12
	c3.5,0.9,7.4,1.4,11.9,1.4c4.6,0,9.1-0.5,13.5-0.9c4-0.4,7.8-0.8,11.2-0.8c4,0,6.8,0.5,8.8,1.7c4.4,2.6,7.7,10,10.9,17.1
	c3.4,7.6,6.9,15.5,12.9,21.6s13.9,9.6,21.6,12.9c7.2,3.2,14.6,6.5,17.1,10.9c2.5,4.3,1.7,12.3,0.9,20c-0.9,8.4-1.8,17,0.5,25.4
	c2.2,8.1,7.2,15,12,21.6c4.9,6.7,9.5,13,9.5,18.4s-4.6,11.7-9.5,18.4c-4.8,6.6-9.8,13.5-12,21.6c-2.2,8.4-1.3,17-0.5,25.4
	c0.8,7.7,1.6,15.7-0.9,20c-2.6,4.4-10,7.7-17.1,10.9c-7.6,3.4-15.5,6.9-21.6,12.9c-6,6-9.6,13.9-12.9,21.6
	c-3.2,7.2-6.5,14.6-10.9,17.1c-1.9,1.1-4.8,1.7-8.8,1.7c-3.4,0-7.2-0.4-11.2-0.8c-4.4-0.5-8.9-0.9-13.5-0.9c-4.5,0-8.4,0.5-11.9,1.4
	c-8.1,2.2-15,7.2-21.6,12c-6.7,4.9-13.1,9.5-18.4,9.5C239.6,369.9,233.2,365.3,226.5,360.4z M388.4,372c-4.7,0.6-8.4,4.3-9.1,9.1
	l-8.9,68.5l-80.7-80.7c0.2-0.1,0.4-0.1,0.7-0.2c1.7-0.5,3.9-0.7,6.5-0.7c3.5,0,7.3,0.4,11.3,0.8c4.4,0.5,8.9,0.9,13.4,0.9
	c7.9,0,14-1.4,19.3-4.5c10.3-6,15.3-17,19.6-26.8c2.7-6.1,5.3-12,8.6-15.2c3.3-3.3,9.1-5.9,15.2-8.6c5.2-2.3,10.8-4.8,15.8-8.2
	l56.7,56.8L388.4,372z M312.8,302.6c3.3-2.4,4.9-6.5,4.1-10.4l-12-63.5l47.1-44.3c3-2.8,4-7,2.8-10.9c-1.3-3.9-4.6-6.7-8.7-7.2
	l-64.1-8.2l-27.6-58.5c-1.7-3.7-5.4-6-9.5-6c-4.1,0-7.8,2.3-9.5,6l-27.6,58.5l-64.1,8.2c-4,0.5-7.4,3.3-8.7,7.2
	c-1.3,3.9-0.2,8.1,2.8,10.9l47.1,44.3l-12,63.5c-0.8,4,0.9,8.1,4.1,10.4c1.8,1.3,4,2,6.2,2c1.7,0,3.5-0.4,5-1.3l56.7-31.1l56.7,31.1
	C305.2,305.2,309.6,305,312.8,302.6z M250,251c-1.6-0.9-3.3-1.3-5-1.3s-3.5,0.4-5,1.3l-42.2,23.1l9-47.3c0.7-3.5-0.5-7.1-3.1-9.6
	l-35.1-33l47.8-6.1c3.6-0.5,6.6-2.7,8.2-5.9l20.6-43.5l20.6,43.5c1.5,3.2,4.6,5.5,8.2,5.9l47.8,6.1l-35.1,33
	c-2.6,2.5-3.8,6.1-3.1,9.6l9,47.3L250,251z"/>
</svg>
