<?xml version="1.0" encoding="utf-8"?>
<!-- Generator: Adobe Illustrator 23.0.0, SVG Export Plug-In . SVG Version: 6.00 Build 0)  -->
<svg version="1.1" id="Capa_1" xmlns="http://www.w3.org/2000/svg" xmlns:xlink="http://www.w3.org/1999/xlink" x="0px" y="0px"
	 viewBox="0 0 444.8 444.8" style="enable-background:new 0 0 444.8 444.8;" xml:space="preserve">
<style type="text/css">
	.st0{fill:#AD66FF;}
</style>
<path class="st0" d="M296.6,416.7L110.8,231.1c-2.6-2.7-3.6-5.2-3.6-8.6c0-3.5,0.9-5.6,3.3-8L296.8,28.4l0.2-0.2
	c2.2-2.3,4.1-3.1,7.6-3.1s5.4,0.8,7.6,3.1l0.2,0.2L334.3,50c2.4,2.3,3.3,4.6,3.3,8s-1,5.9-3.5,8.5l-156.3,156l156.4,156.4
	c2.4,2.3,3.3,4.6,3.3,8s-1,5.9-3.4,8.5l-21.5,21.2c-2.3,2.4-4.6,3.3-8,3.3C301.2,419.9,298.9,419,296.6,416.7z"/>
</svg>
