<?xml version="1.0" encoding="utf-8"?>
<!-- Generator: Adobe Illustrator 23.0.0, SVG Export Plug-In . SVG Version: 6.00 Build 0)  -->
<svg version="1.1" id="Layer_1" xmlns="http://www.w3.org/2000/svg" xmlns:xlink="http://www.w3.org/1999/xlink" x="0px" y="0px"
	 viewBox="0 0 512 512" style="enable-background:new 0 0 512 512;" xml:space="preserve">
<style type="text/css">
	.st0{fill:url(#SVGID_1_);}
</style>
<g>
	<g>
		<linearGradient id="SVGID_1_" gradientUnits="userSpaceOnUse" x1="188.815" y1="495.66" x2="310.7281" y2="6.6933">
			<stop  offset="0" style="stop-color:#A439FF"/>
			<stop  offset="1" style="stop-color:#9794FF"/>
		</linearGradient>
		<path class="st0" d="M482.2,226.2C482.2,101.5,380.7,0,256,0S29.8,101.5,29.8,226.2c0,7.4,6,13.4,13.4,13.4s13.4-6,13.4-13.4
			c0-109.9,89.4-199.4,199.4-199.4s199.4,89.4,199.4,199.4c0,109.9-89.4,199.4-199.4,199.4h-23.3l33.3-37.3c4.9-5.5,4.5-14-1.1-18.9
			s-14-4.5-18.9,1.1l-47.6,53.3c-7.8,8.7-7.8,21.9,0,30.6l47.6,53.3c2.7,3,6.3,4.5,10,4.5c3.2,0,6.4-1.1,8.9-3.4
			c5.5-4.9,6-13.4,1.1-18.9l-33.3-37.3H256C380.7,452.4,482.2,350.9,482.2,226.2z"/>
	</g>
</g>
</svg>
