<?xml version="1.0" encoding="utf-8"?>
<!-- Generator: Adobe Illustrator 22.1.0, SVG Export Plug-In . SVG Version: 6.00 Build 0)  -->
<svg version="1.1" id="Capa_1" xmlns="http://www.w3.org/2000/svg" xmlns:xlink="http://www.w3.org/1999/xlink" x="0px" y="0px"
	 viewBox="0 0 444.8 444.8" style="enable-background:new 0 0 444.8 444.8;" xml:space="preserve">
<style type="text/css">
	.st0{fill:#FFFFFF;}
</style>
<path class="st0" d="M140.2,419.9c-3.4,0-5.7-0.9-8-3.3l-21.5-21.2c-2.4-2.6-3.4-5.1-3.4-8.5s0.9-5.7,3.3-8L267,222.5l-156.3-156
	c-2.5-2.6-3.5-5.1-3.5-8.5s0.9-5.7,3.3-8l21.9-21.6l0.2-0.2c2.2-2.3,4.1-3.1,7.6-3.1s5.4,0.8,7.6,3.1l0.2,0.2l186.3,186.1
	c2.4,2.4,3.3,4.5,3.3,8c0,3.4-1,5.9-3.6,8.6L148.2,416.7C145.9,419,143.6,419.9,140.2,419.9z"/>
</svg>
