<?xml version="1.0" encoding="utf-8"?>
<!-- Generator: Adobe Illustrator 22.1.0, SVG Export Plug-In . SVG Version: 6.00 Build 0)  -->
<svg version="1.1" id="Capa_1" xmlns="http://www.w3.org/2000/svg" xmlns:xlink="http://www.w3.org/1999/xlink" x="0px" y="0px"
	 viewBox="0 0 512 512" style="enable-background:new 0 0 512 512;" xml:space="preserve">
<style type="text/css">
	.st0{fill:url(#SVGID_1_);}
</style>
<linearGradient id="SVGID_1_" gradientUnits="userSpaceOnUse" x1="222.9633" y1="452.9582" x2="329.057" y2="27.4398">
	<stop  offset="0" style="stop-color:#A439FF"/>
	<stop  offset="1" style="stop-color:#9794FF"/>
</linearGradient>
<path class="st0" d="M500.9,437.3l-86.3-86.3c-11.9-11.9-31.2-14.8-48.4-5.9L343,321.7c65.7-76.5,62.3-192.3-10.2-264.7
	C256.7-19,133-19,57,57c-76,76-76,199.7,0,275.7c38,38,87.9,57,137.9,57c45.2,0,90.5-15.6,126.9-46.8l23.2,23.2
	c-8.9,17.2-5.9,36.5,5.9,48.4l86.3,86.3c15.5,15.5,42.6,15,60.6-3c8.2-8.2,13.2-18.8,14-29.8C512.8,456.4,508.8,445.1,500.9,437.3z
	 M311.5,311.5c-64.3,64.3-169,64.3-233.3,0c-64.3-64.3-64.3-169,0-233.3c64.3-64.3,169-64.3,233.3,0
	C375.9,142.6,375.9,247.2,311.5,311.5z M476.6,476.6c-5.9,5.9-14.2,7-18.2,3l-86.3-86.3c-4.1-4.1-2.7-12.4,3-18.2h0
	c6.9-6.9,15-6.3,18.2-3l86.3,86.3C483.8,462.6,482.4,470.9,476.6,476.6z M290.3,99.4c-52.7-52.7-138.2-52.7-190.9,0
	C74,124.9,60,158.8,60,194.9s14,70,39.5,95.4c52.7,52.7,138.2,52.7,190.9,0C343,237.7,343,152.1,290.3,99.4z M269.1,269.1
	c-41,41-107.5,41-148.5,0c-40.9-40.9-40.9-107.5,0-148.5c41-41,107.5-41,148.5,0C310.1,161.6,310.1,228.2,269.1,269.1z"/>
</svg>
