<?xml version="1.0" encoding="utf-8"?>
<!-- Generator: Adobe Illustrator 22.1.0, SVG Export Plug-In . SVG Version: 6.00 Build 0)  -->
<svg version="1.1" id="Capa_1" xmlns="http://www.w3.org/2000/svg" xmlns:xlink="http://www.w3.org/1999/xlink" x="0px" y="0px"
	 viewBox="0 0 512 512" style="enable-background:new 0 0 512 512;" xml:space="preserve">
<style type="text/css">
	.st0{fill:url(#SVGID_1_);}
</style>
<linearGradient id="SVGID_1_" gradientUnits="userSpaceOnUse" x1="197.5529" y1="490.4187" x2="314.4471" y2="21.5813">
	<stop  offset="0" style="stop-color:#A439FF"/>
	<stop  offset="1" style="stop-color:#9794FF"/>
</linearGradient>
<path class="st0" d="M467,61H165c-24.8,0-45,20.2-45,45s20.2,45,45,45h302c24.8,0,45-20.2,45-45S491.8,61,467,61z M467,121H165
	c-8.3,0-15-6.7-15-15s6.7-15,15-15h302c8.3,0,15,6.7,15,15S475.3,121,467,121z M467,211H165c-24.8,0-45,20.2-45,45s20.2,45,45,45
	h302c24.8,0,45-20.2,45-45S491.8,211,467,211z M467,271H165c-8.3,0-15-6.7-15-15s6.7-15,15-15h302c8.3,0,15,6.7,15,15
	S475.3,271,467,271z M467,361H165c-24.8,0-45,20.2-45,45s20.2,45,45,45h302c24.8,0,45-20.2,45-45S491.8,361,467,361z M467,421H165
	c-8.3,0-15-6.7-15-15s6.7-15,15-15h302c8.3,0,15,6.7,15,15S475.3,421,467,421z M45,61C20.2,61,0,81.2,0,106s20.2,45,45,45
	s45-20.2,45-45S69.8,61,45,61z M45,121c-8.3,0-15-6.7-15-15s6.7-15,15-15s15,6.7,15,15S53.3,121,45,121z M45,211
	c-24.8,0-45,20.2-45,45s20.2,45,45,45s45-20.2,45-45S69.8,211,45,211z M45,271c-8.3,0-15-6.7-15-15s6.7-15,15-15s15,6.7,15,15
	S53.3,271,45,271z M45,361c-24.8,0-45,20.2-45,45s20.2,45,45,45s45-20.2,45-45S69.8,361,45,361z M45,421c-8.3,0-15-6.7-15-15
	s6.7-15,15-15s15,6.7,15,15S53.3,421,45,421z"/>
</svg>
