<?xml version="1.0" encoding="utf-8"?>
<!-- Generator: Adobe Illustrator 22.1.0, SVG Export Plug-In . SVG Version: 6.00 Build 0)  -->
<svg version="1.1" id="Calque_1" xmlns="http://www.w3.org/2000/svg" xmlns:xlink="http://www.w3.org/1999/xlink" x="0px" y="0px"
	 viewBox="0 0 60 60" style="enable-background:new 0 0 60 60;" xml:space="preserve">
<style type="text/css">
	.st0{fill:url(#SVGID_1_);}
</style>
<g id="Calque_2_1_">
	
		<linearGradient id="SVGID_1_" gradientUnits="userSpaceOnUse" x1="-1.666664e-02" y1="32.072" x2="60" y2="32.072" gradientTransform="matrix(1 0 0 -1 0 62)">
		<stop  offset="0" style="stop-color:#A439FF"/>
		<stop  offset="1" style="stop-color:#9794FF"/>
	</linearGradient>
	<path class="st0" d="M36.1,54.6c-0.5,0.1-1,0.2-1.5,0.3c-1.3,0.2-2.2,1.5-1.9,2.8c0.1,0.6,0.5,1.2,1,1.5c0.5,0.4,1.2,0.5,1.8,0.4
		s1.2-0.2,1.8-0.4c1.3-0.3,2.1-1.6,1.8-2.9C38.7,55.1,37.4,54.3,36.1,54.6z M53.9,22.3c0.2,0.5,0.5,0.9,0.9,1.2
		c0.6,0.4,1.4,0.6,2.1,0.3c1.3-0.4,2-1.8,1.5-3c-0.2-0.6-0.4-1.2-0.6-1.7c-0.5-1.2-1.9-1.8-3.1-1.3c-1.2,0.5-1.8,1.9-1.3,3.1
		C53.6,21.3,53.7,21.8,53.9,22.3z M43.9,51.2c-0.4,0.3-0.9,0.6-1.3,0.8c-1.2,0.7-1.5,2.1-0.9,3.3c0.2,0.3,0.4,0.6,0.7,0.8
		c0.7,0.5,1.8,0.6,2.6,0.1c0.5-0.3,1-0.6,1.6-1c1.1-0.7,1.4-2.2,0.7-3.3C46.5,50.8,45,50.5,43.9,51.2z M60,29.1
		c-0.1-1.3-1.2-2.4-2.5-2.3s-2.4,1.2-2.3,2.5c0,0.5,0,1,0,1.5c0,0.8,0.4,1.6,1,2c0.4,0.3,0.8,0.4,1.3,0.4c1.3,0,2.4-1,2.5-2.4
		C60,30.3,60,29.7,60,29.1z M53.5,44.9c-1.1-0.8-2.6-0.6-3.4,0.5c-0.3,0.4-0.6,0.8-1,1.2c-0.9,1-0.7,2.5,0.3,3.4
		c0.1,0,0.1,0.1,0.2,0.1c1,0.7,2.4,0.5,3.2-0.4c0.4-0.5,0.8-0.9,1.1-1.4C54.8,47.2,54.6,45.7,53.5,44.9z M57,36.1
		c-1.3-0.4-2.6,0.3-3,1.6c-0.2,0.5-0.3,1-0.5,1.5c-0.4,1.1,0,2.2,0.9,2.8c0.2,0.1,0.3,0.2,0.5,0.3c1.2,0.5,2.6-0.1,3.1-1.4
		c0.2-0.6,0.4-1.1,0.6-1.7C59,37.9,58.3,36.5,57,36.1z M25.5,55c-2.2-0.4-4.2-1-6.2-2c0,0,0,0-0.1,0c-0.5-0.2-0.9-0.5-1.4-0.7l0,0
		c-0.8-0.5-1.6-1-2.4-1.5c-11.3-8-14.1-23.7-6.1-35.1c1.7-2.5,3.8-4.5,6.2-6.2c0,0,0.1,0,0.1-0.1C24,3.8,35.2,3.4,44,9.3L42.1,12
		c-0.5,0.8-0.2,1.3,0.7,1.2l8.2-0.7c0.9-0.1,1.5-0.9,1.2-1.8L50,2.8c-0.2-0.9-0.9-1-1.4-0.2l-1.9,2.7c-6.4-4.3-14.2-6-21.8-4.6
		c-0.8,0.1-1.5,0.3-2.3,0.5l0,0h-0.1C15.9,2.9,10.1,6.7,6,12.2l-0.1,0.1c-0.1,0.2-0.3,0.4-0.4,0.6c-0.2,0.3-0.4,0.6-0.6,0.9
		c0,0,0,0.1-0.1,0.1c-3.4,5.3-5,11.3-4.8,17.5c0,0,0,0,0,0.1c0,0.6,0.1,1.2,0.1,1.8v0.1c0.1,0.6,0.2,1.2,0.3,1.8
		c1.1,6.2,4,11.8,8.4,16.1l0,0l0,0c1.2,1.2,2.5,2.2,3.8,3.2c3.6,2.5,7.6,4.2,12,5c1.3,0.2,2.6-0.6,2.8-1.9
		C27.7,56.5,26.8,55.2,25.5,55z M28.5,10.7c-1.1,0-2,0.9-2,2v19.4l17.8,9.2c0.3,0.1,0.6,0.2,0.9,0.2c0.7,0,1.4-0.4,1.7-1.1
		c0.5-1,0.1-2.1-0.8-2.6l-15.7-8.1v-17C30.5,11.6,29.6,10.7,28.5,10.7z"/>
</g>
<g id="Calque_3">
</g>
</svg>
