<?xml version="1.0" encoding="utf-8"?>
<!-- Generator: Adobe Illustrator 22.1.0, SVG Export Plug-In . SVG Version: 6.00 Build 0)  -->
<svg version="1.1" id="Calque_1" xmlns="http://www.w3.org/2000/svg" xmlns:xlink="http://www.w3.org/1999/xlink" x="0px" y="0px"
	 viewBox="0 0 60 60" style="enable-background:new 0 0 60 60;" xml:space="preserve">
<style type="text/css">
	.st0{fill:#A244FF;}
</style>
<path class="st0" d="M34.2,4.6c2.2,0.4,4.2,1,6.3,2c0,0,0,0,0.1,0c0.5,0.2,0.9,0.5,1.4,0.7l0,0c0.8,0.5,1.6,1,2.4,1.5
	c11.4,8.1,14.3,24,6.2,35.5c-1.7,2.5-3.8,4.6-6.3,6.3c0,0-0.1,0-0.1,0.1c-8.5,5.7-19.8,6.1-28.7,0.1l1.9-2.7
	c0.5-0.8,0.2-1.3-0.7-1.2l-8.3,0.7c-0.9,0.1-1.5,0.9-1.2,1.8l2.2,8c0.2,0.9,0.9,1,1.4,0.2l1.9-2.7c6.5,4.3,14.4,6.1,22.1,4.7
	c0.8-0.1,1.5-0.3,2.3-0.5l0,0h0.1c6.7-1.7,12.5-5.6,16.7-11.1l0.1-0.1c0.1-0.2,0.3-0.4,0.4-0.6c0.2-0.3,0.4-0.6,0.6-0.9
	c0,0,0-0.1,0.1-0.1c3.4-5.4,5.1-11.4,4.9-17.7c0,0,0,0,0-0.1c0-0.6-0.1-1.2-0.1-1.8v-0.1c-0.1-0.6-0.2-1.2-0.3-1.8
	c-1.1-6.3-4-11.9-8.5-16.3l0,0l0,0c-1.2-1.2-2.5-2.2-3.8-3.2C43.6,2.6,39.5,0.8,35.1,0c-1.3-0.2-2.6,0.6-2.8,1.9
	C32,3.1,32.9,4.4,34.2,4.6z"/>
<path class="st0" d="M30.1,11.5c-1,0-1.8,0.8-1.8,1.8v17.4l15.9,8.2C44.5,39,44.7,39,45,39c0.6,0,1.3-0.4,1.5-1
	c0.4-0.9,0.1-1.9-0.7-2.3l-14.1-7.3V13.3C31.8,12.3,31,11.5,30.1,11.5z"/>
<path class="st0" d="M3.5,25.3c-0.5-0.1-0.8-0.6-0.7-1.1c0.1-0.5,0.6-0.8,1.1-0.7l5.2,1c0.5,0.1,0.8,0.6,0.7,1.1
	c-0.1,0.5-0.6,0.8-1.1,0.7L3.5,25.3z"/>
<path class="st0" d="M13.7,16c-0.2,0-0.3-0.1-0.4-0.2l-4-3.4C8.8,12,8.8,11.4,9.1,11c0.2-0.3,0.6-0.4,0.9-0.3c0.2,0,0.3,0.1,0.4,0.2
	l4,3.4c0.2,0.2,0.3,0.4,0.3,0.6c0,0.3-0.1,0.5-0.2,0.7C14.3,15.9,14,16,13.7,16z"/>
<path class="st0" d="M23.1,9.5c-0.3-0.1-0.6-0.3-0.7-0.6l-1.8-5c-0.1-0.2-0.1-0.5,0-0.7c0.1-0.2,0.3-0.4,0.5-0.5
	c0.2-0.1,0.3-0.1,0.5,0C22,2.7,22.3,3,22.4,3.3l1.8,5c0.1,0.2,0.1,0.5,0,0.7c-0.1,0.2-0.3,0.4-0.5,0.5C23.4,9.5,23.3,9.5,23.1,9.5z"
	/>
<path class="st0" d="M4.7,39.4c-0.3-0.1-0.6-0.3-0.7-0.6c-0.2-0.5,0.1-1,0.6-1.2l5-1.8c0.2-0.1,0.3-0.1,0.5,0
	c0.3,0.1,0.6,0.3,0.7,0.6c0.1,0.2,0.1,0.5,0,0.7c-0.1,0.2-0.3,0.4-0.5,0.5l-5,1.8C5,39.4,4.8,39.5,4.7,39.4z"/>
</svg>
